<svg width="41" height="42" viewBox="0 0 41 42" fill="none" xmlns="http://www.w3.org/2000/svg">
<circle cx="20.5" cy="20.5" r="20.5" fill="url(#paint0_linear)"/>
<path d="M25.6832 28.6843C24.8115 30.3951 23.5647 31.4545 21.9426 31.8625C20.3206 32.2706 18.5911 32.0965 16.7543 31.3402L15.583 33.6389L13.7119 32.6856L14.8968 30.36C13.1699 29.2557 12.0219 27.8964 11.4528 26.282C10.8837 24.6677 11.0939 22.8893 12.0836 20.9469L16.8149 23.3576C16.2792 24.409 16.3889 25.273 17.144 25.9496L18.8465 22.6083C18.1542 21.8964 17.6087 21.293 17.21 20.798C16.8203 20.2852 16.4093 19.6381 15.977 18.8566C15.5715 18.0664 15.3766 17.2376 15.3921 16.3701C15.4254 15.5117 15.6736 14.628 16.1367 13.7192C16.9902 12.0441 18.2013 10.9889 19.7699 10.5536C21.3475 10.1005 23.0237 10.225 24.7983 10.9272L25.9696 8.62839L27.8407 9.58177L26.6558 11.9073C28.2401 12.939 29.2812 14.2439 29.7791 15.8219C30.3038 17.3912 30.0895 19.1113 29.1361 20.9825L24.592 18.6671C25.0732 17.7226 25.0075 16.9484 24.3949 16.3445L22.7333 19.6056C22.7421 19.6325 22.7643 19.655 22.7999 19.6732C22.8356 19.6913 22.8577 19.7139 22.8665 19.7408C23.47 20.3625 23.9136 20.8355 24.1974 21.1596C24.499 21.4929 24.8708 21.9966 25.3129 22.6708C25.7729 23.3541 26.0679 23.9645 26.198 24.5022C26.3371 25.022 26.3815 25.6619 26.331 26.4218C26.2896 27.1639 26.0736 27.9181 25.6832 28.6843ZM20.8957 16.0094C20.6233 16.544 20.7347 17.1843 21.23 17.9305L22.5511 15.3377C21.7653 15.1618 21.2135 15.3857 20.8957 16.0094ZM19.0015 26.9297C19.9208 27.196 20.5439 27.0085 20.8707 26.3669C21.1885 25.7432 21.0195 25.0398 20.3635 24.2566L19.0015 26.9297Z" fill="white"/>
<defs>
<linearGradient id="paint0_linear" x1="-20.5" y1="20.5" x2="20.5" y2="61.5" gradientUnits="userSpaceOnUse">
<stop stop-color="#43E695"/>
<stop offset="1" stop-color="#3BB2B8"/>
</linearGradient>
</defs>
</svg>
