<svg width="26" height="29" viewBox="0 0 26 29" fill="none" xmlns="http://www.w3.org/2000/svg">
<circle cx="13" cy="14" r="13" fill="url(#paint0_linear)"/>
<path d="M15.6375 20.0139C15.0564 21.1544 14.2251 21.8606 13.1438 22.1327C12.0624 22.4047 10.9094 22.2887 9.68487 21.7844L8.904 23.317L7.65659 22.6814L8.44654 21.131C7.2953 20.3948 6.52997 19.4886 6.15054 18.4123C5.77111 17.3361 5.9113 16.1505 6.5711 14.8556L9.72526 16.4627C9.36813 17.1637 9.44127 17.7396 9.9447 18.1907L11.0797 15.9632C10.6182 15.4886 10.2545 15.0863 9.98867 14.7563C9.72889 14.4145 9.45488 13.983 9.16665 13.4621C8.89635 12.9353 8.76638 12.3827 8.77673 11.8044C8.79896 11.2321 8.96444 10.643 9.27315 10.0371C9.84215 8.9204 10.6495 8.21693 11.6952 7.92672C12.747 7.62463 13.8645 7.70765 15.0476 8.17578L15.8284 6.64325L17.0758 7.27884L16.2859 8.82919C17.3421 9.51699 18.0361 10.3869 18.368 11.4389C18.7179 12.4851 18.575 13.6319 17.9394 14.8793L14.91 13.3357C15.2308 12.7061 15.187 12.19 14.7786 11.7873L13.6709 13.9614C13.6767 13.9793 13.6915 13.9943 13.7153 14.0064C13.739 14.0186 13.7538 14.0336 13.7597 14.0515C14.162 14.466 14.4578 14.7813 14.6469 14.9974C14.848 15.2196 15.0959 15.5554 15.3906 16.0049C15.6972 16.4604 15.8939 16.8673 15.9806 17.2258C16.0734 17.5723 16.103 17.9989 16.0693 18.5055C16.0417 19.0002 15.8978 19.503 15.6375 20.0139ZM12.4458 11.5639C12.2642 11.9203 12.3385 12.3472 12.6686 12.8447L13.5494 11.1161C13.0255 10.9988 12.6577 11.1481 12.4458 11.5639ZM11.183 18.8441C11.7959 19.0217 12.2113 18.8966 12.4292 18.4689C12.641 18.0531 12.5283 17.5842 12.091 17.0621L11.183 18.8441Z" fill="white"/>
<defs>
<linearGradient id="paint0_linear" x1="33.9568" y1="15.1247" x2="10.2062" y2="-5.28771" gradientUnits="userSpaceOnUse">
<stop stop-color="#FCE38A"/>
<stop offset="1" stop-color="#F38181"/>
</linearGradient>
</defs>
</svg>
