<svg width="62" height="90" viewBox="0 0 62 90" fill="none" xmlns="http://www.w3.org/2000/svg">
<circle cx="17" cy="45" r="45" fill="url(#paint0_linear)"/>
<path d="M-5.27061 32.0638L3.54342 30.5096L9.6211 64.9779L0.807073 66.532L-3.69041 41.0255L-10.8135 46.6986L-12.3937 37.7369L-5.27061 32.0638ZM39.8236 55.3876C37.9018 59.0773 34.6922 61.3187 30.1949 62.1117C25.6977 62.9047 21.8987 61.8991 18.7979 59.095C15.7243 56.2522 13.707 52.1062 12.7462 46.6569C11.7853 41.2076 12.2658 36.6381 14.1876 32.9483C16.1364 29.2199 19.3595 26.9592 23.8568 26.1662C28.3541 25.3732 32.1396 26.3981 35.2132 29.2409C38.3139 32.0451 40.3447 36.1718 41.3056 41.6211C42.2664 47.0704 41.7724 51.6592 39.8236 55.3876ZM21.5602 45.1027C22.6657 51.3727 25.0404 54.1864 28.6842 53.5439C32.328 52.9014 33.5971 49.4452 32.4916 43.1752C31.386 36.9053 29.0113 34.0916 25.3675 34.7341C21.7237 35.3766 20.4546 38.8328 21.5602 45.1027Z" fill="white"/>
<defs>
<linearGradient id="paint0_linear" x1="-38.6594" y1="25.1766" x2="-14.1147" y2="95.4547" gradientUnits="userSpaceOnUse">
<stop stop-color="#1ACBFD"/>
<stop offset="1" stop-color="#345AFF"/>
</linearGradient>
</defs>
</svg>
