<svg width="33" height="33" viewBox="0 0 33 33" fill="none" xmlns="http://www.w3.org/2000/svg">
<circle cx="16.5" cy="16.5" r="16.5" fill="url(#paint0_linear)"/>
<path d="M10.4334 11.3943L13.2539 10.8969L15.1988 21.9268L12.3783 22.4241L10.9391 14.262L8.65968 16.0774L8.15401 13.2096L10.4334 11.3943ZM24.8635 18.8579C24.2486 20.0386 23.2215 20.7558 21.7824 21.0096C20.3433 21.2634 19.1276 20.9416 18.1353 20.0442C17.1518 19.1346 16.5062 17.8078 16.1988 16.0641C15.8913 14.3203 16.045 12.858 16.66 11.6773C17.2837 10.4842 18.315 9.76081 19.7542 9.50705C21.1933 9.25329 22.4047 9.58126 23.3882 10.491C24.3805 11.3883 25.0303 12.7088 25.3378 14.4526C25.6453 16.1964 25.4872 17.6648 24.8635 18.8579ZM19.0193 15.5667C19.373 17.5731 20.1329 18.4735 21.2989 18.2679C22.465 18.0623 22.8711 16.9563 22.5173 14.9499C22.1635 12.9435 21.4036 12.0432 20.2376 12.2488C19.0716 12.4544 18.6655 13.5603 19.0193 15.5667Z" fill="white"/>
<defs>
<linearGradient id="paint0_linear" x1="49.5" y1="16.5" x2="16.5" y2="-16.5" gradientUnits="userSpaceOnUse">
<stop stop-color="#FF7676"/>
<stop offset="1" stop-color="#F54EA2"/>
</linearGradient>
</defs>
</svg>
