<svg width="169" height="78" viewBox="0 0 169 78" fill="none" xmlns="http://www.w3.org/2000/svg">
<path fill-rule="evenodd" clip-rule="evenodd" d="M158.807 58.1445C158.696 58.1445 158.589 58.158 158.479 58.161C157.046 51.1004 151.056 45.6981 143.712 45.1501C141.149 32.879 130.272 23.6611 117.24 23.6611C115.065 23.6611 112.954 23.9247 110.928 24.409C105.188 10.1057 91.2007 0 74.8449 0C64.4682 0 55.0485 4.0744 48.0768 10.6991C45.8814 9.74153 43.4592 9.20755 40.9107 9.20755C32.1005 9.20755 24.7787 15.5576 23.2589 23.9302C10.1161 25.7718 0 37.0552 0 50.7062C0 65.6434 12.1086 77.752 27.0452 77.752H158.807C164.221 77.752 168.61 73.3625 168.61 67.9485C168.61 62.534 164.221 58.1445 158.807 58.1445Z" fill="#F3F8FF"/>
</svg>
