<svg width="148" height="137" viewBox="0 0 148 137" fill="none" xmlns="http://www.w3.org/2000/svg">
<path fill-rule="evenodd" clip-rule="evenodd" d="M130.79 102.074C130.596 102.074 130.408 102.098 130.215 102.103C127.7 89.7084 117.183 80.2245 104.29 79.2623C99.7917 57.7202 80.6969 41.5377 57.8181 41.5377C54.0007 41.5377 50.2941 42.0005 46.7371 42.8507C36.6602 17.7408 12.1056 0 -16.6076 0C-34.8241 0 -51.3606 7.15273 -63.5997 18.7826C-67.4537 17.1016 -71.706 16.1641 -76.1799 16.1641C-91.6467 16.1641 -104.5 27.3119 -107.168 42.0102C-130.241 45.2432 -148 65.0516 -148 89.0163C-148 115.239 -126.743 136.496 -100.521 136.496H130.79C140.295 136.496 148 128.79 148 119.286C148 109.78 140.295 102.074 130.79 102.074Z" fill="#F3F8FF"/>
</svg>
