<svg width="38" height="38" viewBox="0 0 38 38" fill="none" xmlns="http://www.w3.org/2000/svg">
<rect width="38" height="38" rx="6" fill="url(#paint0_linear)"/>
<path fill-rule="evenodd" clip-rule="evenodd" d="M21.6994 11.0031L19.7803 11C17.6246 11 16.231 12.5457 16.231 14.9377V16.7535H14.3013C14.1353 16.7535 14 16.8989 14 17.0793V19.7103C14 19.8899 14.1353 20.0362 14.3013 20.0362H16.231V26.6742C16.231 26.8537 16.3663 27 16.5331 27H19.0497C19.2165 27 19.3518 26.8537 19.3518 26.6742V20.0362H21.6076C21.7745 20.0362 21.9092 19.8899 21.9092 19.7103L21.9105 17.0793C21.9105 16.9932 21.8782 16.9104 21.8218 16.8486C21.7654 16.7876 21.6888 16.7535 21.6084 16.7535H19.3518V15.2142C19.3518 14.4745 19.515 14.099 20.4057 14.099L21.6987 14.0981C21.8655 14.0981 22 13.9519 22 13.7723V11.33C22 11.1494 21.8655 11.004 21.6994 11.0031Z" fill="white"/>
<defs>
<linearGradient id="paint0_linear" x1="102.315" y1="34.9966" x2="37.0561" y2="-32.6296" gradientUnits="userSpaceOnUse">
<stop stop-color="#1ACBFD"/>
<stop offset="1" stop-color="#345AFF"/>
</linearGradient>
</defs>
</svg>
