<svg width="38" height="38" viewBox="0 0 38 38" fill="none" xmlns="http://www.w3.org/2000/svg">
<rect width="38" height="38" rx="6" fill="url(#paint0_linear)"/>
<mask id="mask0" mask-type="alpha" maskUnits="userSpaceOnUse" x="11" y="13" width="12" height="12">
<path fill-rule="evenodd" clip-rule="evenodd" d="M11.0024 13.0322V24.9974H22.9654V13.0322H11.0024Z" fill="white"/>
</mask>
<g mask="url(#mask0)">
<path fill-rule="evenodd" clip-rule="evenodd" d="M17.5623 20.2505H20.4845C19.9716 21.7007 18.5824 22.7405 16.9559 22.7285C14.9825 22.7139 13.3508 21.1352 13.2741 19.1632C13.192 17.0494 14.8879 15.3035 16.9838 15.3035C17.9421 15.3035 18.8167 15.6687 19.476 16.267C19.6321 16.4087 19.8699 16.4096 20.0235 16.2651L21.0968 15.2549C21.2646 15.0969 21.2652 14.8301 21.0979 14.6716C20.0523 13.681 18.6497 13.0636 17.1029 13.0334C13.8039 12.9689 11.0231 15.6738 11.0001 18.9734C10.977 22.2978 13.6648 24.9999 16.9838 24.9999C20.1756 24.9999 22.783 22.5007 22.9577 19.3526C22.9624 19.3131 22.9654 17.9792 22.9654 17.9792H17.5623C17.3408 17.9792 17.1613 18.1587 17.1613 18.3802V19.8496C17.1613 20.071 17.3409 20.2505 17.5623 20.2505Z" fill="#FBFCFD"/>
</g>
<path fill-rule="evenodd" clip-rule="evenodd" d="M28.0452 17.9548V16.3844C28.0452 16.1721 27.8732 16 27.6609 16H26.3391C26.1268 16 25.9548 16.1721 25.9548 16.3844V17.9548H24.3844C24.1721 17.9548 24 18.1268 24 18.3391V19.6609C24 19.8732 24.1721 20.0452 24.3844 20.0452H25.9548V21.6156C25.9548 21.8279 26.1268 22 26.3391 22H27.6609C27.8732 22 28.0452 21.8279 28.0452 21.6156V20.0452H29.6156C29.8279 20.0452 30 19.8732 30 19.6609V18.3391C30 18.1268 29.8279 17.9548 29.6156 17.9548H28.0452Z" fill="#FBFCFD"/>
<defs>
<linearGradient id="paint0_linear" x1="102.315" y1="34.9966" x2="37.0561" y2="-32.6296" gradientUnits="userSpaceOnUse">
<stop stop-color="#1ACBFD"/>
<stop offset="1" stop-color="#345AFF"/>
</linearGradient>
</defs>
</svg>
