<svg width="142" height="20" viewBox="0 0 142 20" fill="none" xmlns="http://www.w3.org/2000/svg">
<path fill-rule="evenodd" clip-rule="evenodd" d="M31.5395 16.9181C33.3064 16.9181 34.361 15.9803 34.361 14.4526C34.361 12.9521 33.4117 11.907 31.5923 11.907H28.5862V16.9181H31.5395ZM31.1704 8.85204C32.8317 8.85204 33.8336 7.91398 33.8336 6.46705C33.8336 5.0197 32.9107 4.10856 31.1439 4.10856H28.5862V8.85204H31.1704ZM31.7241 1C35.3631 1 37.4198 3.17071 37.4198 6.11862C37.4198 8.07485 36.2596 9.65594 34.7039 10.1919C36.5233 10.6476 38 12.3357 38 14.694C38 17.7757 35.7322 20 32.225 20H25V1H31.7241Z" fill="white"/>
<path fill-rule="evenodd" clip-rule="evenodd" d="M40.3902 20H43.6343V6.63049H40.3902V20ZM42 0C43.1219 0 44 1.00536 44 2.25551C44 3.45107 43.1219 4.45643 42 4.45643C40.9024 4.45643 40 3.45107 40 2.25551C40 1.00536 40.9024 0 42 0Z" fill="white"/>
<path fill-rule="evenodd" clip-rule="evenodd" d="M51.5546 19H48V6.33451H51.4477V7.90464C52.2494 6.59185 53.8265 6 55.2429 6C58.5035 6 60 8.23935 60 11.0197V19H56.4456V11.6117C56.4456 10.1959 55.7239 9.08916 54.0135 9.08916C52.4633 9.08916 51.5546 10.2474 51.5546 11.7147V19Z" fill="white"/>
<path fill-rule="evenodd" clip-rule="evenodd" d="M73.3914 13C73.3914 10.5056 71.7636 9.24526 70 9.24526C68.2364 9.24526 66.6086 10.5056 66.6086 13C66.6086 15.4675 68.2364 16.7547 70 16.7547C71.7636 16.7547 73.3914 15.4944 73.3914 13ZM77 13C77 17.0496 73.9884 20 70 20C66.0116 20 63 17.0496 63 13C63 8.92349 66.0116 6 70 6C73.9884 6 77 8.92349 77 13Z" fill="white"/>
<path fill-rule="evenodd" clip-rule="evenodd" d="M83.2155 6.8684H86V9.97362H83.2155V15.3946C83.2155 16.5262 83.7781 16.8946 84.8471 16.8946C85.2971 16.8946 85.8031 16.8421 86 16.7893V19.6841C85.6626 19.8156 84.9875 20 83.8906 20C81.1905 20 79.5031 18.4998 79.5031 16.0001V9.97362H77V6.8684H77.7029C79.1654 6.8684 79.8405 5.97368 79.8405 4.81588V3H83.2155V6.8684Z" fill="white"/>
<path fill-rule="evenodd" clip-rule="evenodd" d="M97 9.56451C96.6001 9.48574 96.2534 9.45962 95.9332 9.45962C94.1199 9.45962 92.5468 10.3244 92.5468 13.1029V19H89V6.10489H92.4401V8.01794C93.24 6.31445 95.0534 6 96.1735 6C96.4666 6 96.7336 6.02612 97 6.05244V9.56451Z" fill="white"/>
<path fill-rule="evenodd" clip-rule="evenodd" d="M107.299 14.2763V13.6853L104.279 14.142C103.354 14.2763 102.619 14.787 102.619 15.8081C102.619 16.5874 103.191 17.3397 104.361 17.3397C105.884 17.3397 107.299 16.6142 107.299 14.2763ZM103 12.0191L106.292 11.5356C107.054 11.4281 107.299 11.0517 107.299 10.595C107.299 9.65445 106.565 8.87536 105.041 8.87536C103.462 8.87536 102.592 9.86951 102.483 11.025L99.2722 10.3534C99.49 8.28413 101.422 6 105.014 6C109.259 6 110.837 8.36468 110.837 11.025V17.5278C110.837 18.2263 110.918 19.1669 111 19.6236H107.68C107.598 19.2745 107.544 18.5489 107.544 18.0383C106.864 19.0862 105.585 20 103.599 20C100.741 20 99 18.0922 99 16.023C99 13.6583 100.769 12.3415 103 12.0191Z" fill="white"/>
<path fill-rule="evenodd" clip-rule="evenodd" d="M120.027 16.7662C121.894 16.7662 123.349 15.3532 123.349 12.9347C123.349 10.5434 121.894 9.21202 120.027 9.21202C118.161 9.21202 116.678 10.5705 116.678 12.9618C116.678 15.3532 118.106 16.7662 120.027 16.7662ZM126.89 17.2556C126.89 18.1522 126.945 19.1305 127 19.674H123.514C123.459 19.4021 123.377 18.7501 123.377 18.1251C122.773 19.1848 121.4 20 119.588 20C115.745 20 113 17.0108 113 12.9618C113 9.0489 115.663 5.97823 119.478 5.97823C121.812 5.97823 122.91 6.92943 123.294 7.63585V0H126.89V17.2556Z" fill="white"/>
<path fill-rule="evenodd" clip-rule="evenodd" d="M138.489 11.4981C138.435 10.1839 137.577 8.8966 135.54 8.8966C133.691 8.8966 132.672 10.2912 132.592 11.4981H138.489ZM141.812 15.8163C141.142 18.0959 139.051 20 135.808 20C132.19 20 129 17.3985 129 12.9464C129 8.73581 132.109 6 135.487 6C139.561 6 142 8.60155 142 12.8391C142 13.3488 141.946 13.8852 141.946 13.9387H132.511C132.592 15.682 134.066 16.9424 135.835 16.9424C137.497 16.9424 138.408 16.1111 138.837 14.931L141.812 15.8163Z" fill="white"/>
<path fill-rule="evenodd" clip-rule="evenodd" d="M0 1V19L0.198192 18.8228L6.12038 13.5254L11.215 5.55044L11.3616 5.32079L11.5935 5.17005L18 1H0Z" fill="white"/>
<path fill-rule="evenodd" clip-rule="evenodd" d="M12.1428 6.49304L7.00007 14.5972L1 20H19V2L12.1428 6.49304Z" fill="white"/>
</svg>
