<svg width="163" height="31" viewBox="0 0 163 31" fill="none" xmlns="http://www.w3.org/2000/svg">
<path d="M1.88 17.13H3.33C4.02333 17.13 4.59667 16.9 5.05 16.44C5.51 15.98 5.74 15.3233 5.74 14.47C5.74 13.61 5.51333 12.9467 5.06 12.48C4.61333 12.0133 4.04333 11.78 3.35 11.78H1.88V17.13ZM3.36 18H0.9V10.91H3.38C4.33333 10.91 5.13333 11.2267 5.78 11.86C6.42667 12.4867 6.75 13.3567 6.75 14.47C6.75 15.5767 6.42333 16.4433 5.77 17.07C5.11667 17.69 4.31333 18 3.36 18ZM8.60727 15.1H11.2373C11.2239 14.74 11.1039 14.4467 10.8773 14.22C10.6506 13.9867 10.3306 13.87 9.91727 13.87C9.54393 13.87 9.23727 13.9933 8.99727 14.24C8.75727 14.48 8.62727 14.7667 8.60727 15.1ZM11.3773 16.35L12.1873 16.63C12.0473 17.0767 11.7873 17.4433 11.4073 17.73C11.0273 18.01 10.5673 18.15 10.0273 18.15C9.35393 18.15 8.7806 17.92 8.30727 17.46C7.8406 16.9933 7.60727 16.3667 7.60727 15.58C7.60727 14.8467 7.83393 14.24 8.28727 13.76C8.7406 13.28 9.2806 13.04 9.90727 13.04C10.6339 13.04 11.2006 13.27 11.6073 13.73C12.0139 14.1833 12.2173 14.7933 12.2173 15.56C12.2173 15.68 12.2106 15.78 12.1973 15.86H8.57727C8.58393 16.2867 8.72393 16.6367 8.99727 16.91C9.27727 17.1833 9.6206 17.32 10.0273 17.32C10.7139 17.32 11.1639 16.9967 11.3773 16.35ZM12.9672 16.75L13.8172 16.45C13.8505 16.71 13.9639 16.9267 14.1572 17.1C14.3505 17.2667 14.6105 17.35 14.9372 17.35C15.1905 17.35 15.3905 17.29 15.5372 17.17C15.6839 17.0433 15.7572 16.89 15.7572 16.71C15.7572 16.39 15.5505 16.1833 15.1372 16.09L14.3172 15.91C13.9439 15.83 13.6505 15.67 13.4372 15.43C13.2239 15.19 13.1172 14.9 13.1172 14.56C13.1172 14.1467 13.2839 13.79 13.6172 13.49C13.9572 13.19 14.3605 13.04 14.8272 13.04C15.1339 13.04 15.4072 13.0867 15.6472 13.18C15.8872 13.2667 16.0739 13.3833 16.2072 13.53C16.3405 13.6767 16.4405 13.8133 16.5072 13.94C16.5739 14.0667 16.6239 14.1967 16.6572 14.33L15.8272 14.64C15.8139 14.56 15.7905 14.4833 15.7572 14.41C15.7239 14.33 15.6705 14.2433 15.5972 14.15C15.5305 14.0567 15.4305 13.9833 15.2972 13.93C15.1639 13.87 15.0072 13.84 14.8272 13.84C14.5939 13.84 14.4005 13.9033 14.2472 14.03C14.1005 14.1567 14.0272 14.3067 14.0272 14.48C14.0272 14.7867 14.2105 14.98 14.5772 15.06L15.3572 15.23C15.7839 15.3233 16.1105 15.4967 16.3372 15.75C16.5705 15.9967 16.6872 16.3 16.6872 16.66C16.6872 17.04 16.5305 17.3833 16.2172 17.69C15.9105 17.9967 15.4805 18.15 14.9272 18.15C14.3339 18.15 13.8705 18.0033 13.5372 17.71C13.2039 17.41 13.0139 17.09 12.9672 16.75ZM18.8687 18H17.9387V13.19H18.8687V18ZM17.9187 11.85C17.792 11.7167 17.7287 11.5567 17.7287 11.37C17.7287 11.1833 17.792 11.0233 17.9187 10.89C18.052 10.7567 18.212 10.69 18.3987 10.69C18.5853 10.69 18.7453 10.7567 18.8787 10.89C19.012 11.0167 19.0787 11.1767 19.0787 11.37C19.0787 11.5567 19.012 11.7167 18.8787 11.85C18.7453 11.9767 18.5853 12.04 18.3987 12.04C18.212 12.04 18.052 11.9767 17.9187 11.85ZM20.118 18.26L21.028 18.05C21.0613 18.39 21.198 18.67 21.438 18.89C21.678 19.1167 21.978 19.23 22.338 19.23C23.318 19.23 23.808 18.71 23.808 17.67V16.98C23.688 17.2133 23.498 17.4033 23.238 17.55C22.9846 17.6967 22.6846 17.77 22.338 17.77C21.698 17.77 21.168 17.5533 20.748 17.12C20.3346 16.68 20.128 16.12 20.128 15.44C20.128 14.78 20.3346 14.2267 20.748 13.78C21.1613 13.3267 21.6913 13.1 22.338 13.1C23.0713 13.1 23.5646 13.3533 23.818 13.86V13.19H24.748V17.64C24.748 17.96 24.7046 18.2567 24.618 18.53C24.538 18.81 24.408 19.0667 24.228 19.3C24.048 19.5333 23.7946 19.7167 23.468 19.85C23.148 19.9833 22.7713 20.05 22.338 20.05C21.7446 20.05 21.2413 19.88 20.828 19.54C20.4146 19.2067 20.178 18.78 20.118 18.26ZM22.478 16.98C22.8846 16.98 23.2146 16.84 23.468 16.56C23.7213 16.2733 23.848 15.9 23.848 15.44C23.848 14.98 23.7213 14.61 23.468 14.33C23.2146 14.0433 22.8846 13.9 22.478 13.9C22.0646 13.9 21.728 14.04 21.468 14.32C21.2146 14.6 21.088 14.9733 21.088 15.44C21.088 15.9133 21.2113 16.29 21.458 16.57C21.7113 16.8433 22.0513 16.98 22.478 16.98ZM27.1892 15.22V18H26.2492V13.19H27.1692V13.88C27.4892 13.3267 27.9826 13.05 28.6492 13.05C29.2026 13.05 29.6259 13.2267 29.9192 13.58C30.2192 13.9333 30.3692 14.39 30.3692 14.95V18H29.4292V15.11C29.4292 14.3033 29.0559 13.9 28.3092 13.9C27.9559 13.9 27.6792 14.0267 27.4792 14.28C27.2859 14.5267 27.1892 14.84 27.1892 15.22ZM32.4745 15.1H35.1045C35.0911 14.74 34.9711 14.4467 34.7445 14.22C34.5178 13.9867 34.1978 13.87 33.7845 13.87C33.4111 13.87 33.1045 13.9933 32.8645 14.24C32.6245 14.48 32.4945 14.7667 32.4745 15.1ZM35.2445 16.35L36.0545 16.63C35.9145 17.0767 35.6545 17.4433 35.2745 17.73C34.8945 18.01 34.4345 18.15 33.8945 18.15C33.2211 18.15 32.6478 17.92 32.1745 17.46C31.7078 16.9933 31.4745 16.3667 31.4745 15.58C31.4745 14.8467 31.7011 14.24 32.1545 13.76C32.6078 13.28 33.1478 13.04 33.7745 13.04C34.5011 13.04 35.0678 13.27 35.4745 13.73C35.8811 14.1833 36.0845 14.7933 36.0845 15.56C36.0845 15.68 36.0778 15.78 36.0645 15.86H32.4445C32.4511 16.2867 32.5911 16.6367 32.8645 16.91C33.1445 17.1833 33.4878 17.32 33.8945 17.32C34.5811 17.32 35.0311 16.9967 35.2445 16.35ZM37.8444 15.58C37.8444 16.0867 37.9677 16.5 38.2144 16.82C38.4677 17.14 38.8144 17.3 39.2544 17.3C39.6744 17.3 40.011 17.1367 40.2644 16.81C40.5177 16.4833 40.6444 16.0667 40.6444 15.56C40.6444 15.06 40.521 14.6567 40.2744 14.35C40.0277 14.0433 39.691 13.89 39.2644 13.89C38.8377 13.89 38.4944 14.0467 38.2344 14.36C37.9744 14.6733 37.8444 15.08 37.8444 15.58ZM40.6544 17.35V17.27C40.5277 17.5167 40.3344 17.7233 40.0744 17.89C39.821 18.05 39.5177 18.13 39.1644 18.13C38.4777 18.13 37.9244 17.89 37.5044 17.41C37.091 16.9233 36.8844 16.3133 36.8844 15.58C36.8844 14.88 37.0977 14.2867 37.5244 13.8C37.951 13.3067 38.4977 13.06 39.1644 13.06C39.5577 13.06 39.8777 13.14 40.1244 13.3C40.371 13.4533 40.541 13.6433 40.6344 13.87V10.76H41.5644V17.11C41.5644 17.4367 41.581 17.7333 41.6144 18H40.7044C40.671 17.8133 40.6544 17.5967 40.6544 17.35ZM46.5933 18H45.6633V13.19H46.5933V18ZM45.6433 11.85C45.5166 11.7167 45.4533 11.5567 45.4533 11.37C45.4533 11.1833 45.5166 11.0233 45.6433 10.89C45.7766 10.7567 45.9366 10.69 46.1233 10.69C46.3099 10.69 46.4699 10.7567 46.6033 10.89C46.7366 11.0167 46.8033 11.1767 46.8033 11.37C46.8033 11.5567 46.7366 11.7167 46.6033 11.85C46.4699 11.9767 46.3099 12.04 46.1233 12.04C45.9366 12.04 45.7766 11.9767 45.6433 11.85ZM49.1326 15.22V18H48.1926V13.19H49.1126V13.88C49.4326 13.3267 49.9259 13.05 50.5926 13.05C51.1459 13.05 51.5692 13.2267 51.8626 13.58C52.1626 13.9333 52.3126 14.39 52.3126 14.95V18H51.3726V15.11C51.3726 14.3033 50.9992 13.9 50.2526 13.9C49.8992 13.9 49.6226 14.0267 49.4226 14.28C49.2292 14.5267 49.1326 14.84 49.1326 15.22Z" fill="#93B2DC"/>
<g opacity="0.85">
<path fill-rule="evenodd" clip-rule="evenodd" d="M109.36 12.6867C109.36 13.2553 109.242 13.7455 109.005 14.1573C108.769 14.5691 108.434 14.922 108.02 15.1965C107.606 15.4907 107.133 15.7064 106.6 15.824C106.029 15.9809 105.477 16.0397 104.846 16.0397C104.432 16.0397 104.038 16.0005 103.663 15.9809C103.269 15.9417 102.894 15.8632 102.539 15.7456C102.185 15.6279 101.83 15.4711 101.475 15.275C101.14 15.0985 100.824 14.8632 100.489 14.5691C100.45 14.5299 100.45 14.471 100.489 14.4514L101.83 12.6867C101.869 12.6474 101.928 12.6278 101.948 12.6474C102.401 13.0004 102.875 13.2749 103.308 13.4122C103.781 13.5887 104.294 13.6867 104.767 13.6867C105.122 13.6867 105.418 13.6475 105.654 13.5887C105.891 13.5298 106.108 13.4318 106.246 13.3141C106.403 13.2161 106.482 13.0984 106.541 12.9808C106.6 12.8631 106.64 12.7455 106.64 12.6278C106.64 12.471 106.6 12.3337 106.522 12.1768C106.423 12.0592 106.305 11.9415 106.108 11.8239C105.91 11.7062 105.654 11.6082 105.339 11.4906C105.004 11.3729 104.629 11.2552 104.156 11.1376C103.624 10.9807 103.17 10.8435 102.756 10.667C102.342 10.4905 102.007 10.2748 101.751 10.0199C101.495 9.76501 101.278 9.45127 101.12 9.09832C100.962 8.74537 100.903 8.33359 100.903 7.86299C100.903 7.35317 101.002 6.88257 101.199 6.51001C101.416 6.11784 101.672 5.76489 102.066 5.47076C102.421 5.17663 102.875 4.96094 103.367 4.82368C103.88 4.66681 104.432 4.58838 105.023 4.58838C105.674 4.58838 106.324 4.6472 106.955 4.76485C107.586 4.88251 108.197 5.15702 108.848 5.58841C108.887 5.62763 108.907 5.68645 108.887 5.70606L107.823 7.62769C107.783 7.6669 107.724 7.68651 107.704 7.6669C107.192 7.37278 106.758 7.15708 106.305 7.07865C105.851 7.00022 105.418 6.961 104.964 6.961C104.55 6.961 104.215 7.01983 103.959 7.17669C103.683 7.33356 103.565 7.52964 103.565 7.86299C103.565 8.01986 103.604 8.13751 103.683 8.25516C103.781 8.37281 103.9 8.49046 104.097 8.5885C104.314 8.70615 104.55 8.80419 104.866 8.92184C105.201 9.01989 105.575 9.13754 106.029 9.2748C106.738 9.49049 107.33 9.68657 107.744 9.92187C108.158 10.1572 108.513 10.4317 108.749 10.7258C108.986 11.0199 109.143 11.3141 109.222 11.6474C109.301 12.0004 109.36 12.3337 109.36 12.6867Z" fill="#A3BDE1"/>
<path fill-rule="evenodd" clip-rule="evenodd" d="M120.262 8.78469C120.262 8.45134 120.202 8.19643 120.104 7.96113C119.986 7.72583 119.867 7.54936 119.69 7.4317C119.512 7.27484 119.335 7.1964 119.099 7.13758C118.882 7.07875 118.684 7.03954 118.468 7.03954C118.251 7.03954 118.014 7.07875 117.817 7.13758C117.62 7.1964 117.403 7.31405 117.226 7.4317C117.048 7.58857 116.891 7.76505 116.812 7.96113C116.693 8.19643 116.654 8.47095 116.654 8.78469V11.9416C116.654 12.275 116.713 12.5299 116.812 12.7652C116.93 13.0005 117.048 13.177 117.226 13.2946C117.403 13.4515 117.581 13.5299 117.817 13.5888C118.034 13.6476 118.231 13.6868 118.468 13.6868C118.684 13.6868 118.882 13.6476 119.099 13.5888C119.315 13.5299 119.512 13.4123 119.69 13.2946C119.867 13.1378 119.986 12.9613 120.104 12.7652C120.222 12.5299 120.262 12.2554 120.262 11.9416V8.78469ZM122.844 12.4515C122.844 13.0789 122.726 13.6084 122.489 14.0397C122.253 14.4907 121.917 14.8633 121.543 15.1966C121.129 15.4908 120.676 15.7261 120.143 15.8829C119.611 16.0398 119.039 16.1182 118.448 16.1182C117.857 16.1182 117.285 16.0202 116.792 15.8829C116.26 15.7261 115.806 15.4908 115.392 15.1966C114.978 14.9025 114.643 14.5104 114.407 14.0397C114.17 13.5888 114.052 13.0397 114.052 12.4515V8.23565C114.052 7.60818 114.17 7.07875 114.446 6.64737C114.722 6.19637 115.038 5.82381 115.452 5.54929C115.865 5.27478 116.339 5.03948 116.851 4.90222C117.383 4.74535 117.896 4.68652 118.428 4.68652C118.96 4.68652 119.493 4.78457 120.025 4.92182C120.557 5.07869 121.03 5.31399 121.444 5.60812C121.859 5.90225 122.193 6.29442 122.45 6.7258C122.726 7.1768 122.844 7.72583 122.844 8.31409V12.4515Z" fill="#A3BDE1"/>
<path fill-rule="evenodd" clip-rule="evenodd" d="M128.009 15.9028V4.90224C128.009 4.84361 128.048 4.8042 128.107 4.8042H130.473C130.532 4.8042 130.572 4.84361 130.572 4.90224V13.6086C130.572 13.6674 130.611 13.7066 130.67 13.7066H135.835C135.894 13.7066 135.934 13.7458 135.934 13.8047V15.9224C135.934 15.981 135.894 16.0204 135.835 16.0204H128.127C128.068 15.981 128.009 15.9224 128.009 15.9028Z" fill="#A3BDE1"/>
<path fill-rule="evenodd" clip-rule="evenodd" d="M143.543 11.6475H145.613C145.672 11.6475 145.712 11.5886 145.712 11.5298L145.494 10.8827L144.607 7.78461H144.548L143.661 10.8827L143.445 11.5298C143.445 11.5886 143.484 11.6475 143.543 11.6475ZM146.323 13.7848H142.833C142.794 13.7848 142.774 13.824 142.735 13.8436L142.104 15.9415C142.104 15.9809 142.045 16.0005 142.005 16.0005H139.403C139.344 16.0005 139.285 15.9415 139.305 15.8829L143.227 4.88256C143.227 4.84334 143.287 4.82373 143.326 4.82373H145.869C145.909 4.82373 145.928 4.86295 145.968 4.88256L149.792 15.8829C149.831 15.9415 149.753 16.0005 149.693 16.0005H147.131C147.091 16.0005 147.072 15.9613 147.032 15.9415L146.382 13.8436C146.382 13.8044 146.362 13.7848 146.323 13.7848Z" fill="#A3BDE1"/>
<path fill-rule="evenodd" clip-rule="evenodd" d="M156.81 9.51022C156.81 9.56905 156.85 9.60827 156.909 9.60827H158.742C159.215 9.60827 159.57 9.49062 159.787 9.25531C160.004 9.02001 160.122 8.72589 160.122 8.37294C160.122 8.01998 160.004 7.72586 159.787 7.49056C159.57 7.25525 159.215 7.1376 158.742 7.1376H156.909C156.85 7.1376 156.81 7.17682 156.81 7.23565V9.51022ZM159.274 4.8042C159.905 4.8042 160.437 4.90224 160.851 5.09833C161.305 5.31402 161.66 5.56893 161.916 5.92188C162.192 6.25522 162.389 6.62778 162.507 7.07878C162.626 7.49056 162.685 7.94155 162.685 8.37294C162.685 8.66706 162.645 8.96119 162.566 9.25532C162.488 9.54944 162.35 9.84357 162.211 10.1181C162.054 10.3926 161.857 10.6279 161.62 10.8632C161.403 11.0789 161.167 11.275 160.91 11.4319C160.871 11.4711 160.851 11.4907 160.871 11.5495L162.803 15.9222C162.842 15.981 162.764 16.0398 162.704 16.0398H160.141C160.102 16.0398 160.083 16.0008 160.043 15.981L158.387 11.9613C158.387 11.9221 158.328 11.9025 158.289 11.9025H156.83C156.771 11.9025 156.731 11.9417 156.731 12.0005V15.9222C156.731 15.981 156.692 16.0202 156.633 16.0202H154.227C154.169 16.0202 154.129 15.981 154.129 15.9222V4.92185C154.129 4.86302 154.169 4.82381 154.227 4.82381H159.274V4.8042Z" fill="#A3BDE1"/>
<path fill-rule="evenodd" clip-rule="evenodd" d="M104.322 21.1977C104.322 20.9481 104.271 20.7442 104.196 20.5855C104.12 20.4042 103.995 20.2679 103.844 20.1774C103.693 20.0867 103.542 19.996 103.341 19.9278C103.139 19.8827 102.963 19.86 102.762 19.86H101.505C101.429 19.86 101.379 19.9054 101.379 19.9734V24.2355C101.379 24.3038 101.429 24.3489 101.505 24.3489H102.762C102.963 24.3489 103.114 24.3038 103.29 24.2811C103.492 24.2355 103.642 24.1451 103.793 24.0317C103.944 23.9184 104.07 23.7821 104.171 23.6236C104.296 23.442 104.322 23.2382 104.322 23.0115V21.1977ZM105.227 23.1019C105.227 23.3742 105.152 23.6463 105.026 23.8955C104.9 24.1451 104.749 24.3489 104.523 24.5078C104.322 24.689 104.07 24.8252 103.793 24.8933C103.517 25.0066 103.215 25.0291 102.913 25.0291H100.574C100.499 25.0291 100.448 24.9839 100.448 24.9157V19.2476C100.448 19.1798 100.499 19.1343 100.574 19.1343H102.913C103.215 19.1343 103.517 19.1798 103.793 19.2705C104.07 19.361 104.296 19.4744 104.523 19.656C104.724 19.8373 104.875 20.0412 105.026 20.2679C105.152 20.5175 105.177 20.7896 105.177 21.0614V23.1019H105.227Z" fill="#A3BDE1"/>
<path fill-rule="evenodd" clip-rule="evenodd" d="M108.295 24.9158V20.9031C108.295 20.8348 108.346 20.7897 108.421 20.7897H109C109.075 20.7897 109.125 20.8348 109.125 20.9031V24.9158C109.125 24.9841 109.075 25.0292 109 25.0292H108.421C108.346 25.0292 108.295 24.9841 108.295 24.9158ZM109.201 19.5199C109.201 19.6561 109.151 19.7695 109.05 19.8599C108.924 19.9733 108.824 19.9962 108.673 19.9962C108.547 19.9962 108.396 19.9509 108.321 19.8599C108.195 19.7466 108.17 19.6561 108.17 19.5199C108.17 19.384 108.22 19.2707 108.321 19.2027C108.446 19.0893 108.547 19.0664 108.673 19.0664C108.824 19.0664 108.949 19.1118 109.05 19.2027C109.125 19.2931 109.201 19.384 109.201 19.5199Z" fill="#A3BDE1"/>
<path fill-rule="evenodd" clip-rule="evenodd" d="M115.111 22.0589C115.111 22.0136 115.111 21.9909 115.061 21.9456C114.835 21.8095 114.608 21.6962 114.382 21.6055C114.105 21.4921 113.879 21.4694 113.703 21.4694C113.426 21.4694 113.25 21.5375 113.099 21.6735C112.948 21.8095 112.873 22.0589 112.873 22.399V23.5326C112.873 23.8727 112.948 24.0768 113.099 24.2128C113.25 24.3488 113.451 24.4168 113.703 24.4168C113.904 24.4168 114.131 24.3715 114.382 24.2808C114.608 24.2128 114.835 24.0994 115.061 24.0087C115.111 23.9634 115.111 23.9407 115.111 23.8954V22.0589ZM113.628 20.7666C113.778 20.7666 114.005 20.8119 114.231 20.88C114.457 20.948 114.759 21.084 115.111 21.2881L115.187 20.9026C115.187 20.8573 115.262 20.8346 115.313 20.8346H115.841C115.916 20.8346 115.966 20.88 115.966 20.948V25.3464C115.966 25.5958 115.916 25.7998 115.816 26.0039C115.69 26.1853 115.539 26.344 115.363 26.48C115.162 26.616 114.935 26.7294 114.709 26.7521C114.483 26.8201 114.206 26.8654 113.954 26.8654C113.703 26.8654 113.376 26.8201 113.074 26.7294C112.798 26.6614 112.546 26.5254 112.319 26.344C112.269 26.2986 112.269 26.2306 112.319 26.2079L112.747 25.7545C112.823 25.8225 112.898 25.8905 113.024 25.9359C113.149 26.0039 113.225 26.0492 113.326 26.0719C113.426 26.0946 113.552 26.1399 113.678 26.1399C113.804 26.1853 113.879 26.1853 113.979 26.1853C114.131 26.1853 114.281 26.1853 114.432 26.1399C114.583 26.0946 114.709 26.0266 114.81 25.9585C114.935 25.8905 115.011 25.7772 115.086 25.6411C115.162 25.5051 115.212 25.3691 115.212 25.1877V24.7116C114.91 24.893 114.608 25.029 114.382 25.0517C114.105 25.1197 113.929 25.165 113.728 25.165C113.275 25.165 112.898 25.029 112.596 24.7796C112.295 24.5075 112.143 24.1674 112.143 23.646V22.3537C112.143 21.8775 112.295 21.4921 112.596 21.22C112.798 20.9026 113.175 20.7666 113.628 20.7666Z" fill="#A3BDE1"/>
<path fill-rule="evenodd" clip-rule="evenodd" d="M118.934 24.9158V20.9031C118.934 20.8348 118.985 20.7897 119.06 20.7897H119.639C119.714 20.7897 119.764 20.8348 119.764 20.9031V24.9158C119.764 24.9841 119.714 25.0292 119.639 25.0292H119.06C119.01 25.0292 118.934 24.9841 118.934 24.9158ZM119.84 19.5199C119.84 19.6561 119.789 19.7695 119.689 19.8599C119.563 19.9733 119.463 19.9962 119.312 19.9962C119.186 19.9962 119.035 19.9509 118.96 19.8599C118.834 19.7466 118.809 19.6561 118.809 19.5199C118.809 19.384 118.859 19.2707 118.96 19.2027C119.086 19.0893 119.186 19.0664 119.312 19.0664C119.463 19.0664 119.589 19.1118 119.689 19.2027C119.789 19.2931 119.84 19.384 119.84 19.5199Z" fill="#A3BDE1"/>
<path fill-rule="evenodd" clip-rule="evenodd" d="M125.675 24.8478C125.675 24.9158 125.625 24.9611 125.599 24.9611C125.449 25.0065 125.298 25.0291 125.096 25.0745C124.895 25.1198 124.745 25.1198 124.644 25.1198C124.141 25.1198 123.763 25.0065 123.537 24.8024C123.311 24.5984 123.185 24.2583 123.185 23.7822V21.6056C123.185 21.5376 123.135 21.4923 123.059 21.4923H122.632C122.556 21.4923 122.506 21.4469 122.506 21.3789V20.9255C122.506 20.8574 122.556 20.8121 122.632 20.8121H123.084C123.135 20.8121 123.21 20.7668 123.21 20.7441L123.361 19.9279C123.361 19.8828 123.411 19.8599 123.487 19.8599H123.864C123.94 19.8599 123.99 19.9052 123.99 19.9732V20.6987C123.99 20.7668 124.04 20.8121 124.116 20.8121H125.172C125.248 20.8121 125.298 20.8574 125.298 20.9255V21.3789C125.298 21.4469 125.248 21.4923 125.172 21.4923H124.116C124.04 21.4923 123.99 21.5376 123.99 21.6056V23.5781C123.99 23.7595 123.99 23.8955 124.04 23.9862C124.09 24.0996 124.116 24.1905 124.191 24.2583C124.266 24.3263 124.342 24.3716 124.417 24.3943C124.493 24.4397 124.619 24.4397 124.719 24.4397C124.82 24.4397 124.946 24.4397 125.072 24.3943C125.197 24.3943 125.348 24.349 125.499 24.349L125.675 24.8478Z" fill="#A3BDE1"/>
<path fill-rule="evenodd" clip-rule="evenodd" d="M131.082 23.2381C131.082 23.1701 131.032 23.1247 130.957 23.1247H129.825C129.699 23.1247 129.599 23.1247 129.473 23.1701C129.347 23.1701 129.246 23.2152 129.121 23.2834C128.995 23.3515 128.919 23.3968 128.844 23.4875C128.769 23.6008 128.718 23.6915 128.718 23.8276C128.718 24.0316 128.794 24.213 128.945 24.281C129.096 24.3944 129.297 24.4622 129.548 24.4622C129.674 24.4622 129.775 24.4622 129.925 24.417C130.051 24.3717 130.202 24.3488 130.303 24.3037C130.428 24.2583 130.529 24.1903 130.655 24.1677C130.781 24.0996 130.881 24.0543 130.957 24.0316V23.2381H131.082ZM131.032 24.5984C130.655 24.7798 130.353 24.9156 130.127 24.9839C129.901 25.0519 129.674 25.0519 129.473 25.0519C129.02 25.0519 128.643 24.9385 128.366 24.7118C128.09 24.4622 127.938 24.1677 127.938 23.782C127.938 23.5328 128.014 23.3286 128.14 23.1927C128.266 23.0114 128.416 22.9207 128.593 22.8073C128.794 22.694 128.97 22.6259 129.171 22.6033C129.372 22.5579 129.548 22.535 129.699 22.535H131.057V22.2178C131.057 21.9004 130.982 21.6964 130.781 21.6057C130.579 21.5148 130.328 21.4243 129.976 21.4243C129.825 21.4243 129.599 21.4697 129.372 21.4923C129.171 21.5377 128.945 21.6281 128.769 21.7644C128.718 21.8097 128.643 21.8097 128.618 21.719L128.341 21.3336C128.291 21.288 128.291 21.2203 128.391 21.1976C128.668 21.0162 128.97 20.8802 129.221 20.8575C129.523 20.7895 129.825 20.7441 130.102 20.7441C130.705 20.7441 131.158 20.8802 131.46 21.1296C131.761 21.379 131.912 21.7415 131.912 22.2632V24.9612C131.912 25.029 131.862 25.0745 131.787 25.0745H131.183L131.032 24.5984Z" fill="#A3BDE1"/>
<path fill-rule="evenodd" clip-rule="evenodd" d="M135.811 23.8957C135.811 24.1453 135.861 24.2811 135.962 24.304C136.037 24.3491 136.188 24.372 136.39 24.372C136.465 24.372 136.515 24.4174 136.515 24.4854V25.0746C136.44 25.0746 136.314 25.12 136.238 25.12H136.012C135.786 25.12 135.585 25.0746 135.484 25.0522C135.358 25.0066 135.258 24.9388 135.132 24.8479C135.006 24.7345 134.981 24.6441 134.981 24.5078C134.931 24.372 134.931 24.2357 134.931 24.0544V19.044C134.931 18.976 134.981 18.9307 135.057 18.9307H135.635C135.71 18.9307 135.761 18.976 135.761 19.044V23.9186H135.811V23.8957Z" fill="#A3BDE1"/>
<path fill-rule="evenodd" clip-rule="evenodd" d="M81.7752 19.7378L74.5254 26.949C74.3212 27.1521 74.0659 27.2537 73.8107 27.2537C73.5554 27.2537 73.3001 27.1521 73.0959 26.949C72.6875 26.5427 72.6875 25.8995 73.0959 25.4932L80.3116 18.282C80.7201 17.8757 81.3668 17.8757 81.7752 18.282C82.1837 18.6883 82.1837 19.3315 81.7752 19.7378ZM79.8011 14.4902L76.1932 18.0789C75.989 18.282 75.7337 18.3836 75.4785 18.3836C75.2232 18.3836 74.9679 18.282 74.7637 18.0789C74.3553 17.6726 74.3553 17.0293 74.7637 16.6231L78.3716 13.0344C78.78 12.6281 79.4267 12.6281 79.8351 13.0344C80.2095 13.4406 80.2095 14.0839 79.8011 14.4902ZM72.9427 11.24L80.1925 4.0288C80.601 3.62254 81.2477 3.62254 81.6561 4.0288C82.0645 4.43507 82.0645 5.07833 81.6561 5.48459L74.3893 12.6958C74.1851 12.899 73.9298 13.0005 73.6745 13.0005C73.4193 13.0005 73.164 12.899 72.9598 12.6958C72.5343 12.2726 72.5343 11.6463 72.9427 11.24ZM77.3505 0.101562C68.8754 0.101562 62 6.95731 62 15.3704C62 23.7835 68.8924 30.6393 77.3505 30.6393C85.8085 30.6393 92.7009 23.7835 92.7009 15.3704C92.7009 6.95731 85.8426 0.101562 77.3505 0.101562Z" fill="#93B2DC"/>
</g>
</svg>
