<svg width="38" height="38" viewBox="0 0 38 38" fill="none" xmlns="http://www.w3.org/2000/svg">
<rect width="38" height="38" rx="6" fill="url(#paint0_linear)"/>
<path fill-rule="evenodd" clip-rule="evenodd" d="M27 15.5378C26.4138 15.7978 25.7788 15.9779 25.1151 16.0566C25.7938 15.6503 26.3113 15.0064 26.56 14.2388C25.9251 14.6151 25.2226 14.8889 24.4702 15.0352C23.8752 14.4001 23.0203 14 22.0779 14C20.2668 14 18.7969 15.4703 18.7969 17.2819C18.7969 17.5407 18.8269 17.7895 18.8806 18.0295C16.1508 17.892 13.7348 16.588 12.1137 14.6001C11.8299 15.084 11.6687 15.6503 11.6687 16.2517C11.6687 17.3894 12.2499 18.3958 13.1286 18.981C12.5911 18.9672 12.0887 18.8159 11.6449 18.5709V18.6109C11.6449 20.2024 12.7774 21.5302 14.276 21.834C14.0023 21.9065 13.7098 21.9453 13.4123 21.9453C13.2023 21.9453 12.9973 21.9265 12.7924 21.8878C13.2123 23.1918 14.4222 24.1382 15.8584 24.1682C14.7347 25.0471 13.3186 25.5697 11.7812 25.5697C11.5175 25.5697 11.2587 25.5547 11 25.526C12.4549 26.4586 14.1785 27 16.0334 27C22.0679 27 25.3689 21.999 25.3689 17.6632L25.3589 17.2381C26.0038 16.7743 26.56 16.1979 27 15.5378Z" fill="#FBFCFD"/>
<defs>
<linearGradient id="paint0_linear" x1="102.315" y1="34.9966" x2="37.0561" y2="-32.6296" gradientUnits="userSpaceOnUse">
<stop stop-color="#1ACBFD"/>
<stop offset="1" stop-color="#345AFF"/>
</linearGradient>
</defs>
</svg>
