<svg width="38" height="38" viewBox="0 0 38 38" fill="none" xmlns="http://www.w3.org/2000/svg">
<rect width="38" height="38" rx="6" fill="url(#paint0_linear)"/>
<path fill-rule="evenodd" clip-rule="evenodd" d="M23.4914 21.3584C24.0886 21.9308 24.7187 22.4691 25.2543 23.0993C25.4909 23.3791 25.715 23.668 25.8862 23.9928C26.129 24.4546 25.909 24.9629 25.4871 24.9907L22.8651 24.9894C22.1885 25.0446 21.6491 24.7773 21.1954 24.3234C20.8324 23.9603 20.496 23.5739 20.1471 23.1985C20.0039 23.0452 19.8541 22.9008 19.675 22.7869C19.3172 22.5587 19.0065 22.6284 18.8018 22.995C18.5936 23.3678 18.5462 23.7805 18.5257 24.1961C18.4977 24.8022 18.3111 24.9616 17.6909 24.9894C16.3651 25.0508 15.1073 24.8538 13.9386 24.1975C12.9083 23.6187 12.1092 22.8016 11.4139 21.8769C10.0598 20.0756 9.02283 18.0966 8.09093 16.0623C7.88106 15.6038 8.03467 15.3578 8.54986 15.349C9.40518 15.3328 10.2605 15.334 11.117 15.3478C11.4647 15.3529 11.6948 15.5486 11.8291 15.8712C12.292 16.9884 12.8583 18.0512 13.5692 19.0366C13.7584 19.2988 13.9516 19.5611 14.2265 19.7459C14.5306 19.9503 14.7619 19.8825 14.9051 19.55C14.9958 19.3391 15.0356 19.112 15.0561 18.8861C15.1237 18.109 15.1326 17.3334 15.014 16.5592C14.9409 16.0758 14.6637 15.7632 14.1725 15.6716C13.9218 15.6251 13.9591 15.5336 14.0807 15.3929C14.2912 15.1508 14.4895 15 14.8846 15H17.8483C18.3149 15.0904 18.4186 15.2962 18.4824 15.7569L18.485 18.9887C18.4798 19.1673 18.5757 19.6966 18.9031 19.8148C19.165 19.8987 19.3377 19.6929 19.4948 19.5299C20.2044 18.7906 20.7108 17.9168 21.1633 17.0122C21.364 16.6142 21.5367 16.2012 21.7039 15.7884C21.8281 15.482 22.0225 15.3314 22.3739 15.3379L25.2263 15.3404C25.3107 15.3404 25.3964 15.3416 25.4782 15.3555C25.959 15.436 26.0907 15.639 25.9422 16.0996C25.7083 16.8225 25.2532 17.425 24.8082 18.0302C24.3326 18.6763 23.8238 19.3003 23.3522 19.9503C22.9188 20.5439 22.9531 20.843 23.4914 21.3584Z" fill="#FBFCFD"/>
<defs>
<linearGradient id="paint0_linear" x1="102.315" y1="34.9966" x2="37.0561" y2="-32.6296" gradientUnits="userSpaceOnUse">
<stop stop-color="#1ACBFD"/>
<stop offset="1" stop-color="#345AFF"/>
</linearGradient>
</defs>
</svg>
